<svg width="21" height="20" viewBox="0 0 21 20" fill="none" xmlns="http://www.w3.org/2000/svg">
<path fill-rule="evenodd" clip-rule="evenodd" d="M0.111328 10C0.111328 4.579 4.69033 0 10.1113 0C15.5323 0 20.1113 4.579 20.1113 10C20.1113 13.19 18.5193 16.078 16.1113 17.924V18H16.0093C14.3413 19.245 12.2983 20 10.1113 20C7.92433 20 5.88133 19.245 4.21333 18H4.11133V17.924C1.70333 16.078 0.111328 13.189 0.111328 10ZM7.2348 15.236C6.70287 15.6639 6.33269 16.2604 6.18533 16.927C7.35333 17.604 8.69533 18 10.1113 18C11.5273 18 12.8693 17.604 14.0373 16.927C13.8898 16.2605 13.5196 15.6641 12.9877 15.2362C12.4558 14.8083 11.794 14.5744 11.1113 14.573H9.11133C8.42863 14.5742 7.76672 14.808 7.2348 15.236ZM13.8791 13.4117C14.6991 13.9574 15.3399 14.7329 15.7213 15.641C17.1883 14.182 18.1113 12.176 18.1113 10C18.1113 5.663 14.4483 2 10.1113 2C5.77433 2 2.11133 5.663 2.11133 10C2.11133 12.176 3.03433 14.182 4.50133 15.641C4.88277 14.7329 5.5236 13.9574 6.3436 13.4117C7.1636 12.866 8.12634 12.5742 9.11133 12.573H11.1113C12.0963 12.5742 13.0591 12.866 13.8791 13.4117ZM6.11133 8C6.11133 5.72 7.83133 4 10.1113 4C12.3913 4 14.1113 5.72 14.1113 8C14.1113 10.28 12.3913 12 10.1113 12C7.83133 12 6.11133 10.28 6.11133 8ZM8.11133 8C8.11133 9.178 8.93333 10 10.1113 10C11.2893 10 12.1113 9.178 12.1113 8C12.1113 6.822 11.2893 6 10.1113 6C8.93333 6 8.11133 6.822 8.11133 8Z" fill="#9B9B9B"/>
</svg>
